<svg width="375" height="25" viewBox="0 0 375 25" fill="none" xmlns="http://www.w3.org/2000/svg">
<line y1="12.1963" x2="376" y2="12.1963" stroke="#8CABFB"/>
<circle cx="188" cy="12.6963" r="12" fill="#251C3E"/>
<path d="M186.636 12.5672H185C185.028 10.9382 185.349 10.6696 186.35 10.0765C186.465 10.0068 186.503 9.86027 186.434 9.74166C186.367 9.62655 186.217 9.58817 186.102 9.65794C184.923 10.3556 184.512 10.7812 184.512 12.8079V14.6882C184.512 15.2847 184.997 15.7661 185.59 15.7661H186.636C187.25 15.7661 187.714 15.3021 187.714 14.6882V13.6417C187.714 13.0312 187.25 12.5672 186.636 12.5672Z" fill="#F16A07"/>
<path d="M190.41 12.5672H188.774C188.802 10.9382 189.123 10.6696 190.124 10.0765C190.239 10.0068 190.278 9.86027 190.208 9.74166C190.138 9.62655 189.992 9.58817 189.873 9.65794C188.694 10.3556 188.282 10.7812 188.282 12.8114V14.6917C188.282 15.2882 188.767 15.7696 189.36 15.7696H190.407C191.021 15.7696 191.485 15.3056 191.485 14.6917V13.6452C191.488 13.0312 191.024 12.5672 190.41 12.5672Z" fill="#F16A07"/>
</svg>
